<?xml version="1.0"?>
<svg xmlns="http://www.w3.org/2000/svg" xmlns:xlink="http://www.w3.org/1999/xlink" version="1.1" id="Capa_1" x="0px" y="0px" viewBox="0 0 512 256" style="enable-background:new 0 0 512 256;" xml:space="preserve" width="35px" height="20px" class=""><g><g>
	<g>
		<path d="M502,27H10C4.477,27,0,31.477,0,37v192c0,5.523,4.477,10,10,10h492c5.523,0,10-4.477,10-10V37    C512,31.477,507.523,27,502,27z M184,219H20V47h164V219z M492,219H204V47h288V219z" data-original="#000000" class="active-path" />
	</g>
</g><g>
	<g>
		<path d="M368.5,123H256.127c-5.523,0-10,4.477-10,10s4.477,10,10,10H368.5c5.523,0,10-4.477,10-10S374.023,123,368.5,123z" data-original="#000000" class="active-path" />
	</g>
</g><g>
	<g>
		<path d="M447.527,123H411.41c-5.523,0-10,4.477-10,10s4.477,10,10,10h36.117c5.523,0,10-4.477,10-10S453.05,123,447.527,123z" data-original="#000000" class="active-path" />
	</g>
</g><g>
	<g>
		<path d="M417.902,79H256.127c-5.523,0-10,4.477-10,10s4.477,10,10,10h161.775c5.523,0,10-4.477,10-10S423.425,79,417.902,79z" data-original="#000000" class="active-path" />
	</g>
</g><g>
	<g>
		<path d="M455.07,81.93C453.21,80.07,450.63,79,448,79s-5.21,1.07-7.07,2.93C439.07,83.79,438,86.37,438,89s1.07,5.21,2.93,7.07    c1.86,1.86,4.44,2.93,7.07,2.93s5.21-1.07,7.07-2.93c1.86-1.86,2.93-4.44,2.93-7.07S456.93,83.79,455.07,81.93z" data-original="#000000" class="active-path" />
	</g>
</g><g>
	<g>
		<path d="M341.325,167h-85.198c-5.523,0-10,4.477-10,10s4.477,10,10,10h85.198c5.523,0,10-4.477,10-10S346.848,167,341.325,167z" data-original="#000000" class="active-path" />
	</g>
</g><g>
	<g>
		<path d="M382.36,169.93c-1.86-1.86-4.44-2.93-7.07-2.93s-5.21,1.07-7.07,2.93s-2.93,4.44-2.93,7.07s1.07,5.21,2.93,7.07    s4.44,2.93,7.07,2.93s5.21-1.07,7.07-2.93c1.86-1.86,2.93-4.44,2.93-7.07S384.22,171.79,382.36,169.93z" data-original="#000000" class="active-path" />
	</g>
</g><g>
	<g>
		<path d="M418.48,169.93c-1.86-1.86-4.44-2.93-7.07-2.93s-5.21,1.07-7.07,2.93s-2.93,4.44-2.93,7.07s1.07,5.21,2.93,7.07    s4.44,2.93,7.07,2.93s5.21-1.07,7.07-2.93c1.86-1.86,2.93-4.44,2.93-7.07S420.34,171.79,418.48,169.93z" data-original="#000000" class="active-path" />
	</g>
</g><g>
	<g>
		<path d="M150.93,162.948l-9.49-6.988c2.921-6.041,4.56-12.813,4.56-19.96v-16c0-25.364-20.636-46-46-46s-46,20.636-46,46v16    c0,25.364,20.636,46,46,46c10.997,0,21.102-3.883,29.024-10.345l10.046,7.397c1.786,1.315,3.863,1.948,5.922,1.948    c3.07,0,6.1-1.409,8.06-4.071C156.327,172.482,155.377,166.222,150.93,162.948z M126,136c0,2.69-0.411,5.285-1.172,7.727    l-10.565-7.779c-4.449-3.275-10.708-2.324-13.982,2.123c-3.275,4.447-2.325,10.708,2.123,13.982l9.544,7.028    c-3.58,1.86-7.642,2.919-11.948,2.919c-14.336,0-26-11.664-26-26v-16c0-14.336,11.664-26,26-26s26,11.664,26,26V136z" data-original="#000000" class="active-path" />
	</g>
</g></g> </svg>
